<svg width="1410" height="249" viewBox="0 0 1410 249" fill="none" xmlns="http://www.w3.org/2000/svg">
<path d="M1325.79 22.4746H1407.2L1404.4 43.1025L1355.55 38.0092V95.6908H1397.53L1395.12 113.772H1355.55V189.535L1410 184.442L1407.2 205.069H1325.79V22.4746Z" fill="white"></path>
<path d="M1300.73 18.6553V205.07H1270.96V85.7595H1270.07L1218.29 167.889V205.07H1188.53V22.4752L1218.29 18.6553V138.093H1219.31L1270.96 55.8364V22.4752L1300.73 18.6553Z" fill="white"></path>
<path d="M1045.03 22.4752L1074.8 18.6553V95.6914H1133.57V22.4752L1163.34 18.6553V205.07H1133.57V113.773H1074.8V205.07H1045.03V22.4752Z" fill="white"></path>
<path d="M960.947 22.4752L974.686 18.6553L1030.91 205.07L999.874 208.89L985.499 161.14H935.632L921.131 208.89L905.611 205.07L960.947 22.4752ZM980.029 143.059L960.566 78.7562L941.103 143.059H980.029Z" fill="white"></path>
<path d="M899.632 186.989V245.18L872.791 249V205.07H783.107V245.18L756.139 249V186.989H774.839L819.744 22.4752L835.009 18.6553L880.932 186.989H899.632ZM820.761 81.0482H819.744L791.376 186.989H848.875L820.761 81.0482Z" fill="white"></path>
<path d="M680.066 22.4752L693.805 18.6553L750.032 205.07L718.993 208.89L704.618 161.14H654.752L640.25 208.89L624.73 205.07L680.066 22.4752ZM699.148 143.059L679.685 78.7562L660.222 143.059H699.148Z" fill="white"></path>
<path d="M555.783 39.2825V113.772H561.508C565.494 113.772 569.098 112.881 572.321 111.098C575.628 109.23 578.384 106.599 580.589 103.203C582.879 99.8079 584.618 95.7332 585.805 90.9795C587.077 86.1409 587.713 80.7505 587.713 74.8083C587.713 69.3754 587.077 64.4943 585.805 60.165C584.618 55.7508 582.879 52.0158 580.589 48.9598C578.384 45.8189 575.628 43.442 572.321 41.8292C569.098 40.1314 565.494 39.2825 561.508 39.2825H555.783ZM526.016 22.4746H566.596C576.264 22.4746 584.406 23.8753 591.021 26.6766C597.636 29.393 602.978 33.1281 607.049 37.8818C611.12 42.5507 614.046 48.0684 615.827 54.4351C617.608 60.8017 618.498 67.5928 618.498 74.8083C618.498 81.9389 617.48 88.8573 615.445 95.5635C613.494 102.27 610.399 108.212 606.159 113.39C602.003 118.568 596.618 122.728 590.003 125.869C583.473 129.009 575.671 130.58 566.596 130.58H555.783V205.069H526.016V22.4746Z" fill="white"></path>
<path d="M406.437 22.4746H513.293L510.495 43.1025L473.349 38.0092V205.069H443.582V37.8818L403.765 43.1025L406.437 22.4746Z" fill="white"></path>
<path d="M400.713 47.8144L389.01 63.349C384.176 54.0113 378.621 47.2626 372.345 43.1031C366.069 38.8587 359.03 36.7365 351.228 36.7365C345.716 36.7365 340.543 38.4343 335.709 41.8298C330.875 45.2253 326.634 50.1913 322.987 56.7277C319.426 63.2641 316.627 71.3285 314.592 80.9209C312.556 90.5133 311.539 101.464 311.539 113.773C311.539 126.166 312.556 137.159 314.592 146.752C316.627 156.259 319.426 164.281 322.987 170.818C326.634 177.354 330.875 182.32 335.709 185.716C340.543 189.111 345.716 190.809 351.228 190.809C359.03 190.809 366.069 188.729 372.345 184.57C378.621 180.325 384.176 173.534 389.01 164.196L400.713 179.731C397.66 183.806 394.395 187.626 390.918 191.191C387.441 194.756 383.667 197.855 379.596 200.486C375.61 203.118 371.243 205.155 366.493 206.598C361.829 208.126 356.741 208.89 351.228 208.89C345.292 208.89 339.44 207.871 333.673 205.834C327.991 203.882 322.521 200.995 317.263 197.175C312.09 193.355 307.256 188.687 302.761 183.169C298.351 177.651 294.492 171.369 291.185 164.324C287.962 157.278 285.418 149.511 283.552 141.022C281.771 132.533 280.881 123.45 280.881 113.773C280.881 104.01 281.771 94.885 283.552 86.3962C285.418 77.9073 287.962 70.14 291.185 63.0943C294.492 56.0486 298.351 49.7668 302.761 44.2491C307.256 38.7314 312.09 34.1049 317.263 30.3699C322.521 26.5499 328.034 23.6637 333.8 21.7113C339.567 19.6739 345.376 18.6553 351.228 18.6553C356.741 18.6553 361.829 19.4193 366.493 20.9473C371.243 22.3904 375.61 24.4277 379.596 27.0592C383.667 29.6908 387.441 32.7892 390.918 36.3545C394.395 39.9198 397.66 43.7398 400.713 47.8144Z" fill="white"></path>
<path d="M119.832 47.4687L108.129 63.0033C103.295 53.6656 97.7399 46.9169 91.4642 42.7574C85.1885 38.513 78.1495 36.3908 70.3473 36.3908C64.8349 36.3908 59.6616 38.0886 54.8276 41.4841C49.9937 44.8796 45.7533 49.8456 42.1066 56.382C38.5447 62.9184 35.7461 70.9828 33.7107 80.5752C31.6754 90.1675 30.6577 101.118 30.6577 113.427C30.6577 125.821 31.6754 136.814 33.7107 146.406C35.7461 155.914 38.5447 163.936 42.1066 170.472C45.7533 177.008 49.9937 181.974 54.8276 185.37C59.6616 188.765 64.8349 190.463 70.3473 190.463C78.1495 190.463 85.1885 188.383 91.4642 184.224C97.7399 179.979 103.295 173.188 108.129 163.851L119.832 179.385C116.779 183.46 113.514 187.28 110.037 190.845C106.56 194.41 102.786 197.509 98.7152 200.14C94.7293 202.772 90.3617 204.809 85.6125 206.252C80.9482 207.78 75.8597 208.544 70.3473 208.544C64.4108 208.544 58.5591 207.526 52.7923 205.488C47.1102 203.536 41.6402 200.65 36.3821 196.83C31.2089 193.01 26.3749 188.341 21.8802 182.823C17.4702 177.305 13.6115 171.024 10.304 163.978C7.08137 156.932 4.53717 149.165 2.67142 140.676C0.890472 132.187 0 123.104 0 113.427C0 103.665 0.890472 94.5393 2.67142 86.0505C4.53717 77.5616 7.08137 69.7943 10.304 62.7486C13.6115 55.7029 17.4702 49.4211 21.8802 43.9034C26.3749 38.3857 31.2089 33.7592 36.3821 30.0242C41.6402 26.2042 47.1526 23.318 52.9195 21.3655C58.6864 19.3282 64.4956 18.3096 70.3473 18.3096C75.8597 18.3096 80.9482 19.0736 85.6125 20.6016C90.3617 22.0447 94.7293 24.082 98.7152 26.7135C102.786 29.3451 106.56 32.4435 110.037 36.0088C113.514 39.5741 116.779 43.3941 119.832 47.4687Z" fill="white"></path>
<path d="M158.526 113.691C158.526 126.085 159.543 137.078 161.579 146.67C163.699 156.178 166.54 164.2 170.102 170.736C173.664 177.272 177.862 182.238 182.696 185.634C187.614 189.03 192.872 190.727 198.47 190.727C204.067 190.727 209.283 189.03 214.117 185.634C219.035 182.238 223.276 177.272 226.838 170.736C230.484 164.2 233.325 156.178 235.361 146.67C237.396 137.078 238.414 126.085 238.414 113.691C238.414 101.382 237.396 90.4317 235.361 80.8393C233.325 71.2469 230.484 63.1826 226.838 56.6461C223.276 50.1097 219.035 45.1438 214.117 41.7482C209.283 38.3527 204.067 36.6549 198.47 36.6549C192.872 36.6549 187.614 38.3527 182.696 41.7482C177.862 45.1438 173.664 50.1097 170.102 56.6461C166.54 63.1826 163.699 71.2469 161.579 80.8393C159.543 90.3468 158.526 101.297 158.526 113.691ZM127.741 113.691C127.741 103.929 128.674 94.8035 130.539 86.3146C132.49 77.8258 135.077 70.0585 138.299 63.0128C141.607 55.967 145.508 49.6853 150.003 44.1676C154.497 38.6498 159.331 34.0234 164.505 30.2883C169.763 26.4683 175.275 23.5821 181.042 21.6297C186.809 19.5924 192.618 18.5737 198.47 18.5737C204.321 18.5737 210.131 19.5924 215.897 21.6297C221.664 23.5821 227.177 26.4683 232.435 30.2883C237.693 34.0234 242.527 38.6498 246.937 44.1676C251.432 49.6853 255.333 55.967 258.64 63.0128C261.948 70.0585 264.534 77.8258 266.4 86.3146C268.266 94.8035 269.199 103.929 269.199 113.691C269.199 123.453 268.266 132.579 266.4 141.068C264.534 149.556 261.948 157.324 258.64 164.369C255.333 171.415 251.432 177.697 246.937 183.215C242.527 188.732 237.693 193.401 232.435 197.221C227.177 200.956 221.664 203.8 215.897 205.753C210.131 207.79 204.321 208.808 198.47 208.808C192.533 208.808 186.682 207.79 180.915 205.753C175.233 203.8 169.763 200.956 164.505 197.221C159.246 193.401 154.37 188.732 149.875 183.215C145.381 177.697 141.479 171.415 138.172 164.369C134.949 157.324 132.405 149.556 130.539 141.068C128.674 132.579 127.741 123.453 127.741 113.691Z" fill="white"></path>
<path d="M158.526 113.691C158.526 126.085 159.543 137.078 161.579 146.67C163.699 156.178 166.54 164.2 170.102 170.736C173.664 177.272 177.862 182.238 182.696 185.634C187.614 189.03 192.872 190.727 198.47 190.727C204.067 190.727 209.283 189.03 214.117 185.634C219.035 182.238 223.276 177.272 226.838 170.736C230.484 164.2 233.325 156.178 235.361 146.67C237.396 137.078 238.414 126.085 238.414 113.691C238.414 101.382 237.396 90.4317 235.361 80.8393C233.325 71.2469 230.484 63.1826 226.838 56.6461C223.276 50.1097 219.035 45.1438 214.117 41.7482C209.283 38.3527 204.067 36.6549 198.47 36.6549C192.872 36.6549 187.614 38.3527 182.696 41.7482C177.862 45.1438 173.664 50.1097 170.102 56.6461C166.54 63.1826 163.699 71.2469 161.579 80.8393C159.543 90.3468 158.526 101.297 158.526 113.691ZM127.741 113.691C127.741 103.929 128.674 94.8035 130.539 86.3146C132.49 77.8258 135.077 70.0585 138.299 63.0128C141.607 55.967 145.508 49.6853 150.003 44.1676C154.497 38.6498 159.331 34.0234 164.505 30.2883C169.763 26.4683 175.275 23.5821 181.042 21.6297C186.809 19.5924 192.618 18.5737 198.47 18.5737C204.321 18.5737 210.131 19.5924 215.897 21.6297C221.664 23.5821 227.177 26.4683 232.435 30.2883C237.693 34.0234 242.527 38.6498 246.937 44.1676C251.432 49.6853 255.333 55.967 258.64 63.0128C261.948 70.0585 264.534 77.8258 266.4 86.3146C268.266 94.8035 269.199 103.929 269.199 113.691C269.199 123.453 268.266 132.579 266.4 141.068C264.534 149.556 261.948 157.324 258.64 164.369C255.333 171.415 251.432 177.697 246.937 183.215C242.527 188.732 237.693 193.401 232.435 197.221C227.177 200.956 221.664 203.8 215.897 205.753C210.131 207.79 204.321 208.808 198.47 208.808C192.533 208.808 186.682 207.79 180.915 205.753C175.233 203.8 169.763 200.956 164.505 197.221C159.246 193.401 154.37 188.732 149.875 183.215C145.381 177.697 141.479 171.415 138.172 164.369C134.949 157.324 132.405 149.556 130.539 141.068C128.674 132.579 127.741 123.453 127.741 113.691Z" fill="white"></path>
<path d="M177.791 4.68262L190.849 24.0374L168.463 38.7096L166.598 30.2809L152.918 42.7679L135.196 36.8366L128.045 17.7939L164.422 0L177.791 4.68262Z" fill="white"></path>
<path d="M219.151 4.68262L206.093 24.0374L228.478 38.7096L230.343 30.2809L244.023 42.7679L261.745 36.8366L268.896 17.7939L232.52 0L219.151 4.68262Z" fill="white"></path>
</svg>