<svg width="1410" height="249" viewBox="0 0 1410 249" fill="none" xmlns="http://www.w3.org/2000/svg">
<path d="M1325.79 22.4746H1407.2L1404.4 43.1025L1355.55 38.0092V95.6908H1397.53L1395.12 113.772H1355.55V189.535L1410 184.442L1407.2 205.069H1325.79V22.4746Z" fill="white"></path>
<path d="M1300.73 18.6553V205.07H1270.96V85.7595H1270.07L1218.29 167.889V205.07H1188.53V22.4752L1218.29 18.6553V138.093H1219.31L1270.96 55.8364V22.4752L1300.73 18.6553Z" fill="white"></path>
<path d="M1045.03 22.4752L1074.8 18.6553V95.6914H1133.57V22.4752L1163.34 18.6553V205.07H1133.57V113.773H1074.8V205.07H1045.03V22.4752Z" fill="white"></path>
<path d="M960.947 22.4752L974.686 18.6553L1030.91 205.07L999.874 208.89L985.499 161.14H935.632L921.131 208.89L905.611 205.07L960.947 22.4752ZM980.029 143.059L960.566 78.7562L941.103 143.059H980.029Z" fill="white"></path>
<path d="M899.632 186.989V245.18L872.791 249V205.07H783.107V245.18L756.139 249V186.989H774.839L819.744 22.4752L835.009 18.6553L880.932 186.989H899.632ZM820.761 81.0482H819.744L791.376 186.989H848.875L820.761 81.0482Z" fill="white"></path>
<path d="M680.066 22.4752L693.805 18.6553L750.032 205.07L718.993 208.89L704.618 161.14H654.752L640.25 208.89L624.73 205.07L680.066 22.4752ZM699.148 143.059L679.685 78.7562L660.222 143.059H699.148Z" fill="white"></path>
<path d="M555.783 39.2825V113.772H561.508C565.494 113.772 569.098 112.881 572.321 111.098C575.628 109.23 578.384 106.599 580.589 103.203C582.879 99.8079 584.618 95.7332 585.805 90.9795C587.077 86.1409 587.713 80.7505 587.713 74.8083C587.713 69.3754 587.077 64.4943 585.805 60.165C584.618 55.7508 582.879 52.0158 580.589 48.9598C578.384 45.8189 575.628 43.442 572.321 41.8292C569.098 40.1314 565.494 39.2825 561.508 39.2825H555.783ZM526.016 22.4746H566.596C576.264 22.4746 584.406 23.8753 591.021 26.6766C597.636 29.393 602.978 33.1281 607.049 37.8818C611.12 42.5507 614.046 48.0684 615.827 54.4351C617.608 60.8017 618.498 67.5928 618.498 74.8083C618.498 81.9389 617.48 88.8573 615.445 95.5635C613.494 102.27 610.399 108.212 606.159 113.39C602.003 118.568 596.618 122.728 590.003 125.869C583.473 129.009 575.671 130.58 566.596 130.58H555.783V205.069H526.016V22.4746Z" fill="white"></path>
<path d="M406.437 22.4746H513.293L510.495 43.1025L473.349 38.0092V205.069H443.582V37.8818L403.765 43.1025L406.437 22.4746Z" fill="white"></path>
<path d="M400.713 47.8144L389.01 63.349C384.176 54.0113 378.621 47.2626 372.345 43.1031C366.069 38.8587 359.03 36.7365 351.228 36.7365C345.716 36.7365 340.543 38.4343 335.709 41.8298C330.875 45.2253 326.634 50.1913 322.987 56.7277C319.426 63.2641 316.627 71.3285 314.592 80.9209C312.556 90.5133 311.539 101.464 311.539 113.773C311.539 126.166 312.556 137.159 314.592 146.752C316.627 156.259 319.426 164.281 322.987 170.818C326.634 177.354 330.875 182.32 335.709 185.716C340.543 189.111 345.716 190.809 351.228 190.809C359.03 190.809 366.069 188.729 372.345 184.57C378.621 180.325 384.176 173.534 389.01 164.196L400.713 179.731C397.66 183.806 394.395 187.626 390.918 191.191C387.441 194.756 383.667 197.855 379.596 200.486C375.61 203.118 371.243 205.155 366.493 206.598C361.829 208.126 356.741 208.89 351.228 208.89C345.292 208.89 339.44 207.871 333.673 205.834C327.991 203.882 322.521 200.995 317.263 197.175C312.09 193.355 307.256 188.687 302.761 183.169C298.351 177.651 294.492 171.369 291.185 164.324C287.962 157.278 285.418 149.511 283.552 141.022C281.771 132.533 280.881 123.45 280.881 113.773C280.881 104.01 281.771 94.885 283.552 86.3962C285.418 77.9073 287.962 70.14 291.185 63.0943C294.492 56.0486 298.351 49.7668 302.761 44.2491C307.256 38.7314 312.09 34.1049 317.263 30.3699C322.521 26.5499 328.034 23.6637 333.8 21.7113C339.567 19.6739 345.376 18.6553 351.228 18.6553C356.741 18.6553 361.829 19.4193 366.493 20.9473C371.243 22.3904 375.61 24.4277 379.596 27.0592C383.667 29.6908 387.441 32.7892 390.918 36.3545C394.395 39.9198 397.66 43.7398 400.713 47.8144Z" fill="white"></path>
<path d="M119.832 48.0927L108.129 63.6273C103.295 54.2896 97.7399 47.541 91.4642 43.3814C85.1885 39.137 78.1495 37.0148 70.3473 37.0148C64.8349 37.0148 59.6616 38.7126 54.8276 42.1081C49.9937 45.5036 45.7533 50.4696 42.1066 57.006C38.5447 63.5424 35.7461 71.6068 33.7107 81.1992C31.6754 90.7916 30.6577 101.742 30.6577 114.051C30.6577 126.445 31.6754 137.438 33.7107 147.03C35.7461 156.538 38.5447 164.56 42.1066 171.096C45.7533 177.632 49.9937 182.598 54.8276 185.994C59.6616 189.389 64.8349 191.087 70.3473 191.087C78.1495 191.087 85.1885 189.007 91.4642 184.848C97.7399 180.603 103.295 173.812 108.129 164.475L119.832 180.009C116.779 184.084 113.514 187.904 110.037 191.469C106.56 195.034 102.786 198.133 98.7152 200.764C94.7293 203.396 90.3617 205.433 85.6125 206.876C80.9482 208.404 75.8597 209.168 70.3473 209.168C64.4108 209.168 58.5591 208.15 52.7923 206.112C47.1102 204.16 41.6402 201.274 36.3821 197.454C31.2089 193.634 26.3749 188.965 21.8802 183.447C17.4702 177.929 13.6115 171.648 10.304 164.602C7.08137 157.556 4.53717 149.789 2.67142 141.3C0.890472 132.811 0 123.728 0 114.051C0 104.289 0.890472 95.1633 2.67142 86.6745C4.53717 78.1857 7.08137 70.4184 10.304 63.3726C13.6115 56.3269 17.4702 50.0452 21.8802 44.5274C26.3749 39.0097 31.2089 34.3833 36.3821 30.6482C41.6402 26.8282 47.1526 23.942 52.9195 21.9896C58.6864 19.9523 64.4956 18.9336 70.3473 18.9336C75.8597 18.9336 80.9482 19.6976 85.6125 21.2256C90.3617 22.6687 94.7293 24.706 98.7152 27.3375C102.786 29.9691 106.56 33.0675 110.037 36.6328C113.514 40.1981 116.779 44.0181 119.832 48.0927Z" fill="white"></path>
<path d="M158.526 114.396C158.526 126.789 159.543 137.782 161.579 147.375C163.699 156.882 166.54 164.904 170.102 171.441C173.664 177.977 177.862 182.943 182.696 186.339C187.614 189.734 192.872 191.432 198.47 191.432C204.067 191.432 209.283 189.734 214.117 186.339C219.035 182.943 223.276 177.977 226.838 171.441C230.484 164.904 233.325 156.882 235.361 147.375C237.396 137.782 238.414 126.789 238.414 114.396C238.414 102.087 237.396 91.1363 235.361 81.5439C233.325 71.9515 230.484 63.8871 226.838 57.3507C223.276 50.8143 219.035 45.8484 214.117 42.4528C209.283 39.0573 204.067 37.3595 198.47 37.3595C192.872 37.3595 187.614 39.0573 182.696 42.4528C177.862 45.8484 173.664 50.8143 170.102 57.3507C166.54 63.8871 163.699 71.9515 161.579 81.5439C159.543 91.0514 158.526 102.002 158.526 114.396ZM127.741 114.396C127.741 104.634 128.674 95.508 130.539 87.0192C132.49 78.5304 135.077 70.7631 138.299 63.7174C141.607 56.6716 145.508 50.3899 150.003 44.8722C154.497 39.3544 159.331 34.728 164.505 30.9929C169.763 27.1729 175.275 24.2867 181.042 22.3343C186.809 20.297 192.618 19.2783 198.47 19.2783C204.321 19.2783 210.131 20.297 215.897 22.3343C221.664 24.2867 227.177 27.1729 232.435 30.9929C237.693 34.728 242.527 39.3544 246.937 44.8722C251.432 50.3899 255.333 56.6716 258.64 63.7174C261.948 70.7631 264.534 78.5304 266.4 87.0192C268.266 95.508 269.199 104.634 269.199 114.396C269.199 124.158 268.266 133.283 266.4 141.772C264.534 150.261 261.948 158.028 258.64 165.074C255.333 172.12 251.432 178.401 246.937 183.919C242.527 189.437 237.693 194.106 232.435 197.926C227.177 201.661 221.664 204.505 215.897 206.457C210.131 208.494 204.321 209.513 198.47 209.513C192.533 209.513 186.682 208.494 180.915 206.457C175.233 204.505 169.763 201.661 164.505 197.926C159.246 194.106 154.37 189.437 149.875 183.919C145.381 178.401 141.479 172.12 138.172 165.074C134.949 158.028 132.405 150.261 130.539 141.772C128.674 133.283 127.741 124.158 127.741 114.396Z" fill="white"></path>
<path d="M142.375 61.3514L175.301 26.9507L139.326 15.9648L136.582 26.9507L142.375 61.3514Z" fill="white"></path>
<path d="M256.396 60.0477L223.47 25.647L259.445 14.6611L262.189 25.647L256.396 60.0477Z" fill="white"></path>
</svg>
