<svg width="1410" height="275" viewBox="0 0 1410 275" fill="none" xmlns="http://www.w3.org/2000/svg">
<path d="M1325.79 48.0815H1407.2L1404.4 68.7094L1355.55 63.6161V121.298H1397.53L1395.12 139.379H1355.55V215.142L1410 210.048L1407.2 230.676H1325.79V48.0815Z" fill="white"></path>
<path d="M1300.73 44.2622V230.677H1270.96V111.366H1270.07L1218.29 193.496V230.677H1188.53V48.0822L1218.29 44.2622V163.7H1219.31L1270.96 81.4433V48.0822L1300.73 44.2622Z" fill="white"></path>
<path d="M1045.03 48.0822L1074.8 44.2622V121.298H1133.57V48.0822L1163.34 44.2622V230.677H1133.57V139.38H1074.8V230.677H1045.03V48.0822Z" fill="white"></path>
<path d="M960.947 48.0822L974.686 44.2622L1030.91 230.677L999.874 234.497L985.499 186.747H935.632L921.131 234.497L905.611 230.677L960.947 48.0822ZM980.029 168.666L960.566 104.363L941.103 168.666H980.029Z" fill="white"></path>
<path d="M899.632 212.596V270.787L872.791 274.607V230.677H783.107V270.787L756.139 274.607V212.596H774.839L819.744 48.0822L835.009 44.2622L880.932 212.596H899.632ZM820.761 106.655H819.744L791.376 212.596H848.875L820.761 106.655Z" fill="white"></path>
<path d="M680.066 48.0822L693.805 44.2622L750.032 230.677L718.993 234.497L704.618 186.747H654.752L640.25 234.497L624.73 230.677L680.066 48.0822ZM699.148 168.666L679.685 104.363L660.222 168.666H699.148Z" fill="white"></path>
<path d="M555.783 64.8894V139.379H561.508C565.494 139.379 569.098 138.488 572.321 136.705C575.628 134.837 578.384 132.206 580.589 128.81C582.879 125.415 584.618 121.34 585.805 116.586C587.077 111.748 587.713 106.357 587.713 100.415C587.713 94.9824 587.077 90.1013 585.805 85.772C584.618 81.3578 582.879 77.6227 580.589 74.5667C578.384 71.4258 575.628 69.049 572.321 67.4361C569.098 65.7383 565.494 64.8894 561.508 64.8894H555.783ZM526.016 48.0815H566.596C576.264 48.0815 584.406 49.4822 591.021 52.2835C597.636 54.9999 602.978 58.735 607.049 63.4888C611.12 68.1576 614.046 73.6754 615.827 80.042C617.608 86.4086 618.498 93.1997 618.498 100.415C618.498 107.546 617.48 114.464 615.445 121.17C613.494 127.877 610.399 133.819 606.159 138.997C602.003 144.175 596.618 148.335 590.003 151.476C583.473 154.616 575.671 156.187 566.596 156.187H555.783V230.676H526.016V48.0815Z" fill="white"></path>
<path d="M406.437 48.0815H513.293L510.495 68.7094L473.349 63.6161V230.676H443.582V63.4888L403.765 68.7094L406.437 48.0815Z" fill="white"></path>
<path d="M400.713 73.4214L389.01 88.9559C384.176 79.6182 378.621 72.8696 372.345 68.71C366.069 64.4656 359.03 62.3434 351.228 62.3434C345.716 62.3434 340.543 64.0412 335.709 67.4367C330.875 70.8323 326.634 75.7982 322.987 82.3346C319.426 88.871 316.627 96.9354 314.592 106.528C312.556 116.12 311.539 127.071 311.539 139.38C311.539 151.773 312.556 162.766 314.592 172.359C316.627 181.866 319.426 189.888 322.987 196.425C326.634 202.961 330.875 207.927 335.709 211.322C340.543 214.718 345.716 216.416 351.228 216.416C359.03 216.416 366.069 214.336 372.345 210.176C378.621 205.932 384.176 199.141 389.01 189.803L400.713 205.338C397.66 209.412 394.395 213.232 390.918 216.798C387.441 220.363 383.667 223.461 379.596 226.093C375.61 228.725 371.243 230.762 366.493 232.205C361.829 233.733 356.741 234.497 351.228 234.497C345.292 234.497 339.44 233.478 333.673 231.441C327.991 229.489 322.521 226.602 317.263 222.782C312.09 218.962 307.256 214.294 302.761 208.776C298.351 203.258 294.492 196.976 291.185 189.931C287.962 182.885 285.418 175.118 283.552 166.629C281.771 158.14 280.881 149.057 280.881 139.38C280.881 129.617 281.771 120.492 283.552 112.003C285.418 103.514 287.962 95.747 291.185 88.7013C294.492 81.6555 298.351 75.3738 302.761 69.856C307.256 64.3383 312.09 59.7119 317.263 55.9768C322.521 52.1568 328.034 49.2706 333.8 47.3182C339.567 45.2809 345.376 44.2622 351.228 44.2622C356.741 44.2622 361.829 45.0262 366.493 46.5542C371.243 47.9973 375.61 50.0346 379.596 52.6662C383.667 55.2977 387.441 58.3961 390.918 61.9614C394.395 65.5267 397.66 69.3467 400.713 73.4214Z" fill="white"></path>
<path d="M119.832 73.7129L108.129 89.2474C103.295 79.9097 97.7399 73.1611 91.4642 69.0016C85.1885 64.7571 78.1495 62.6349 70.3473 62.6349C64.8349 62.6349 59.6616 64.3327 54.8276 67.7282C49.9937 71.1238 45.7533 76.0897 42.1066 82.6261C38.5447 89.1625 35.7461 97.2269 33.7107 106.819C31.6754 116.412 30.6577 127.362 30.6577 139.671C30.6577 152.065 31.6754 163.058 33.7107 172.65C35.7461 182.158 38.5447 190.18 42.1066 196.716C45.7533 203.252 49.9937 208.218 54.8276 211.614C59.6616 215.009 64.8349 216.707 70.3473 216.707C78.1495 216.707 85.1885 214.627 91.4642 210.468C97.7399 206.224 103.295 199.432 108.129 190.095L119.832 205.629C116.779 209.704 113.514 213.524 110.037 217.089C106.56 220.655 102.786 223.753 98.7152 226.385C94.7293 229.016 90.3617 231.053 85.6125 232.496C80.9482 234.024 75.8597 234.788 70.3473 234.788C64.4108 234.788 58.5591 233.77 52.7923 231.732C47.1102 229.78 41.6402 226.894 36.3821 223.074C31.2089 219.254 26.3749 214.585 21.8802 209.067C17.4702 203.55 13.6115 197.268 10.304 190.222C7.08137 183.176 4.53717 175.409 2.67142 166.92C0.890472 158.431 0 149.348 0 139.671C0 129.909 0.890472 120.783 2.67142 112.295C4.53717 103.806 7.08137 96.0385 10.304 88.9928C13.6115 81.947 17.4702 75.6653 21.8802 70.1475C26.3749 64.6298 31.2089 60.0034 36.3821 56.2683C41.6402 52.4483 47.1526 49.5621 52.9195 47.6097C58.6864 45.5724 64.4956 44.5537 70.3473 44.5537C75.8597 44.5537 80.9482 45.3177 85.6125 46.8457C90.3617 48.2888 94.7293 50.3261 98.7152 52.9577C102.786 55.5892 106.56 58.6876 110.037 62.2529C113.514 65.8182 116.779 69.6382 119.832 73.7129Z" fill="white"></path>
<path d="M158.526 140.088C158.526 152.481 159.543 163.474 161.579 173.067C163.699 182.574 166.54 190.596 170.102 197.133C173.664 203.669 177.862 208.635 182.696 212.03C187.614 215.426 192.872 217.124 198.47 217.124C204.067 217.124 209.283 215.426 214.117 212.03C219.035 208.635 223.276 203.669 226.838 197.133C230.484 190.596 233.325 182.574 235.361 173.067C237.396 163.474 238.414 152.481 238.414 140.088C238.414 127.779 237.396 116.828 235.361 107.236C233.325 97.6434 230.484 89.579 226.838 83.0426C223.276 76.5062 219.035 71.5403 214.117 68.1447C209.283 64.7492 204.067 63.0514 198.47 63.0514C192.872 63.0514 187.614 64.7492 182.696 68.1447C177.862 71.5403 173.664 76.5062 170.102 83.0426C166.54 89.579 163.699 97.6434 161.579 107.236C159.543 116.743 158.526 127.694 158.526 140.088ZM127.741 140.088C127.741 130.325 128.674 121.2 130.539 112.711C132.49 104.222 135.077 96.455 138.299 89.4093C141.607 82.3635 145.508 76.0818 150.003 70.564C154.497 65.0463 159.331 60.4199 164.505 56.6848C169.763 52.8648 175.275 49.9786 181.042 48.0262C186.809 45.9889 192.618 44.9702 198.47 44.9702C204.321 44.9702 210.131 45.9889 215.897 48.0262C221.664 49.9786 227.177 52.8648 232.435 56.6848C237.693 60.4199 242.527 65.0463 246.937 70.564C251.432 76.0818 255.333 82.3635 258.64 89.4093C261.948 96.455 264.534 104.222 266.4 112.711C268.266 121.2 269.199 130.325 269.199 140.088C269.199 149.85 268.266 158.975 266.4 167.464C264.534 175.953 261.948 183.72 258.64 190.766C255.333 197.812 251.432 204.093 246.937 209.611C242.527 215.129 237.693 219.798 232.435 223.618C227.177 227.353 221.664 230.197 215.897 232.149C210.131 234.186 204.321 235.205 198.47 235.205C192.533 235.205 186.682 234.186 180.915 232.149C175.233 230.197 169.763 227.353 164.505 223.618C159.246 219.798 154.37 215.129 149.875 209.611C145.381 204.093 141.479 197.812 138.172 190.766C134.949 183.72 132.405 175.953 130.539 167.464C128.674 158.975 127.741 149.85 127.741 140.088Z" fill="white"></path>
<path d="M227.738 43.3332V58.2862L255.786 90.3284L260.969 73.8495L266.762 45.4693L258.225 7.32392L249.384 0L244.201 7.32392L227.738 43.3332Z" fill="white"></path>
<path d="M169.813 43.3332V58.2862L141.765 90.3284L136.582 73.8495L130.79 45.4693L139.326 7.32392L148.167 0L153.35 7.32392L169.813 43.3332Z" fill="white"></path>
</svg>
